<?xml version="1.0" encoding="UTF-8"?>
<svg version="1.1" viewBox="0 0 2048 566" width="690" height="191" xmlns="http://www.w3.org/2000/svg">
<path transform="translate(275,23)" d="m0 0h111l39 1 142 2 11 1 1 1v21l-2 129-1 84-1 31-3 27-7 30-8 23-9 20-13 22-12 16-11 13-11 12-13 13-17 13-14 10-19 11-19 10-24 9-25 7-25 5-23 3-19 1h-13l-26-2-20-3-27-6-30-10-26-12-22-13-17-12-11-9-8-8-2-1v-2l-4-2-16-16-9-11-10-14-8-13-10-18-9-21-8-25-5-25-2-19v-37l3-23 5-21 8-24 11-24 8-14 10-15 10-13 12-13 9-10 8-8 11-9 12-9 18-12 16-9 16-8 27-10 20-6 24-5 14-2z" fill="#026146"/>
<path transform="translate(1770,26)" d="m0 0h99l28 2 22 4 18 6 19 10 13 10 12 12 9 14 8 16 6 19 3 14 2 19 1 17v17l-1 27-4 29-5 20-7 19-8 15-8 11-10 11-18 13-3 2 1 7 9 24 31 77 35 87 3 10-56 1h-23l-4-2-8-20-13-37-16-45-15-42-16-45h-27l-1 135-1 55h-75l-1-3-1-370v-132zm76 56-1 1v208h24l15-2 13-4 10-6 9-9 7-12 5-16 3-20 1-25v-38l-1-18-4-20-7-14-9-10-5-4-10-5-10-3-27-3z" fill="#026146"/>
<path transform="translate(1261,22)" d="m0 0h32l18 2 21 6 19 10 13 11 9 10 9 14 8 17 7 21 5 24 3 28v233l-3 26-5 23-7 21-10 21-12 17-13 13-13 8-16 8-17 5-21 3h-28l-19-3-15-5-15-8-13-10-13-13-10-15-8-16-8-24-5-22-3-25v-242l3-23 5-23 8-24 8-16 7-11 11-12 7-7 14-9 13-6 18-5zm7 61-10 4-9 7-7 10-5 13-4 22-1 13v268l3 25 5 16 6 11 8 7 9 4 4 1h23l13-5 6-5 7-12 5-17 3-24v-272l-3-24-4-15-6-12-8-9-13-6z" fill="#026146"/>
<path transform="translate(1537,26)" d="m0 0h87l2 3 15 80 16 87 12 64 26 140 18 97 6 34v7l-71 1-7-1-3-13-9-56-3-22-92 2-12 80-3 9-70 1-8-1 1-13 24-130 17-92 22-119 26-140 4-16zm43 106-2 2-5 29-21 148-9 63-2 13 1 1h75l1-2-9-67-25-174-2-12z" fill="#026146"/>
<path transform="translate(979,22)" d="m0 0h30l22 3 16 5 12 6 14 11 8 9 8 13 6 14 4 14 2 14 1 26-2 27-4 24-2 3h-62l-1-9-2-41-3-21-4-15-7-13-7-6-8-3h-12l-13 4-7 6-8 16-5 21-2 26v260l2 25 3 15 4 10 6 8 9 5 10 3h12l11-4 8-6 6-10 3-8 3-13 2-53 1-13 5-1h49l16 1 1 1v22l-1 50-4 22-5 15-8 16-8 10-5 6-12 9-16 8-16 5-17 3-11 1h-25l-22-4-15-6-13-8-11-9-5-4-9-11-10-15-7-16-6-18-4-18-4-29v-247l3-24 6-26 7-20 8-16 10-14 15-15 16-10 11-5 16-4z" fill="#026146"/>
<path transform="translate(635,26)" d="m0 0h189v61h-111v153h51l35 1v60l-1 1h-85v158l-1 18h115v60h-192l-1-14v-460z" fill="#026146"/>
<path transform="translate(294,120)" d="m0 0h35l20 3 21 6 21 9 15 9 11 9 10 9 11 12 11 15 10 17 9 20 6 21 2 11 1 14v11l-3 23-6 24-8 20-9 16-12 17-11 12-9 9-14 8-4 2h-6l-1-4 16-26 8-15 6-19 4-18 1-6v-42l-5-23-8-21-10-19-14-19-11-12-7-7-18-13-16-8-17-7-21-5-20-2h-20l-19 2-19 3-2-1v-6l8-8 10-6 13-6 17-5z" fill="#FEFEFE"/>
<path transform="translate(212,222)" d="m0 0h36l17 4 14 5 14 8 9 7 12 11 10 12 8 13 7 15 5 17 1 5v28l-4 20-6 17-8 15-9 12-9 10-11 8h-7l1-6 8-14 7-16 4-16 2-18v-16l-4-17-7-19-8-14-8-10-7-7v-2l-4-2-9-8-13-8-21-8-14-3h-31l-18 3-5 1-2-1 1-5 5-5 12-7 16-6z" fill="#FEFEFE"/>
<path transform="translate(149,311)" d="m0 0h27l13 3 14 7 9 7 7 7 9 13 6 14 2 10v17l-4 17-6 15-10 13-8 7-7 1 2-6 7-14 4-15 1-17-3-15-5-12-6-11-8-9-10-7-13-7-11-3h-29l-8 1v-4l5-4 10-5z" fill="#FEFEFE"/>
<path transform="translate(111,385)" d="m0 0h8l10 3 10 6 7 9 3 7 1 5-1 14-6 12-5 6-3 1-1-4 4-9 1-5v-7l-4-13-6-9-10-6-4-1-19-1 1-3 10-4z" fill="#FEFEFE"/>
</svg>
